# xmcd
#
# Track frame offsets: 
#        150
#        18362
#        38480
#        53327
#        72060
#        91480
#        107965
#        127742
#        147072
#        164105
#        181992
#        202545
#        225170
#        243432
#        265185
#
# Disc length: 3885 seconds
#
# Revision: 0
# Processed by: cddbd v1.5.2PL0 Copyright (c) Steve Scherf et al.
# Submitted via: ExactAudioCopy v0.95a5
#
DISCID=b30f2b0f
DTITLE=Lionel Richie - Best Golden of Songs Collection
DYEAR=1990
DGENRE=Blues
TTITLE0=Say you say me
TTITLE1=Endless Love
TTITLE2=Struck On you
TTITLE3=Hello
TTITLE4=Love Will Conquer All
TTITLE5=Ballerina Girl
TTITLE6=Dancing On The Ceiling
TTITLE7=Eas
TTITLE8=Still
TTITLE9=Sail On
TTITLE10=Still In Love
TTITLE11=Don't Wanna Lose You
TTITLE12=Piece Of Love
TTITLE13=My Destiny
TTITLE14=Love oh Love
EXTD=
EXTT0=
EXTT1=
EXTT2=
EXTT3=
EXTT4=
EXTT5=
EXTT6=
EXTT7=
EXTT8=
EXTT9=
EXTT10=
EXTT11=
EXTT12=
EXTT13=
EXTT14=
PLAYORDER=
